<svg width="1080" height="1080" viewBox="0 0 1080 1080" fill="none" xmlns="http://www.w3.org/2000/svg">
<g clip-path="url(#clip0_77_2)">
<rect width="1080" height="1080" fill="#0F0F0F"/>
<path d="M591.327 651.044C714.225 637.483 898.09 353.896 974.66 213.797C987.931 184.599 1022.87 110.004 1056.46 45.2008C1098.44 -35.8027 1293.54 2.24993 1332.47 151.573C1371.4 300.896 1292.26 344.462 1010.24 672.419C728.228 1000.38 462.337 952.449 341.938 883.975C221.54 815.501 80.4885 572.275 184.351 368.666C288.214 165.056 478.924 203.092 562.038 269.226C588.754 290.484 601.967 311.218 607.119 329.597C618.356 369.68 571.079 391.205 532.501 406.847C500.033 420.011 467.189 441.197 453.788 472.819C425.017 540.712 437.705 667.996 591.327 651.044Z" fill="#D9D9D9" stroke="#0F0F0F" stroke-width="32"/>
</g>
<defs>
<clipPath id="clip0_77_2">
<rect width="1080" height="1080" fill="white"/>
</clipPath>
</defs>
</svg>
