<?xml version="1.0" encoding="UTF-8" standalone="no"?>
<!DOCTYPE svg PUBLIC "-//W3C//DTD SVG 1.1//EN" "http://www.w3.org/Graphics/SVG/1.1/DTD/svg11.dtd">
<svg width="100%" height="100%" viewBox="0 0 2802 728" version="1.1" xmlns="http://www.w3.org/2000/svg" xmlns:xlink="http://www.w3.org/1999/xlink" xml:space="preserve" xmlns:serif="http://www.serif.com/" style="fill-rule:evenodd;clip-rule:evenodd;stroke-linejoin:round;stroke-miterlimit:2;">
    <g transform="matrix(1,0,0,1,-353.414582,-2116.50528)">
        <g transform="matrix(0.999984,0.005658,-0.005658,0.999984,13.32458,1081.307757)">
            <path d="M1564.8,1647.543C1559.911,1645.693 1554.543,1645.53 1549.551,1647.081C1549.55,1647.077 1549.55,1647.077 1549.55,1647.077C1532.996,1652.218 1531.432,1650.834 1517.322,1651.939C1515.071,1652.113 1512.809,1652.081 1510.563,1651.843C1496.808,1650.67 1493.589,1650.034 1480.634,1647.043C1477.8,1646.365 1475.05,1645.371 1472.437,1644.082C1459.716,1637.836 1456.378,1636.284 1445.787,1626.853C1443.404,1624.748 1441.261,1622.385 1439.397,1619.808C1433.688,1611.965 1432.524,1610.324 1426.865,1598.064C1425.658,1595.449 1424.345,1593.269 1422.986,1591.447C1418.85,1585.927 1412.625,1582.351 1405.773,1581.561C1404.509,1581.413 1403.141,1581.255 1402.124,1581.138C1401.091,1581.019 1400.046,1581.077 1399.033,1581.311L1393.519,1582.586C1392.53,1582.814 1391.587,1583.206 1390.728,1583.746L1386.135,1586.63C1385.333,1587.134 1384.615,1587.759 1384.007,1588.483L1380.3,1592.895C1379.889,1593.385 1379.53,1593.916 1379.23,1594.481C1376.509,1600.108 1374.584,1612.581 1374.531,1613.507C1374.106,1620.983 1372.412,1622.027 1368.963,1627.934C1368.104,1629.403 1367.054,1630.751 1365.839,1631.941C1363.844,1633.905 1360.734,1636.953 1358.747,1638.9C1357.345,1640.274 1355.716,1641.397 1353.933,1642.218C1342.485,1647.762 1339.223,1648.726 1326.513,1651.588C1323.826,1652.198 1321.079,1652.507 1318.323,1652.509C1304.419,1652.538 1301.633,1652.368 1286.883,1649.619C1285.025,1649.275 1283.195,1648.796 1281.406,1648.187C1265.488,1642.786 1263.318,1641.247 1249.356,1632.37C1247.343,1631.093 1245.44,1629.65 1243.666,1628.058L1243.147,1627.593C1243.04,1627.497 1242.937,1627.396 1242.839,1627.291C1239.797,1624.06 1236.352,1621.186 1233.466,1617.804C1225.402,1608.352 1221.173,1596.716 1217.529,1591.103C1214.12,1585.852 1210.388,1582.45 1207.214,1580.405C1200.849,1576.302 1194.37,1575.257 1187.971,1576.267C1182.19,1577.179 1172.871,1580.203 1165.831,1593.469C1165.405,1594.274 1164.944,1595.06 1164.449,1595.824C1163.452,1597.392 1161.718,1600.092 1159.159,1604.125C1158.802,1604.688 1158.402,1605.223 1157.964,1605.725C1138.078,1628.507 1132.5,1628.332 1119.274,1635.968C1117.65,1636.906 1115.959,1637.726 1114.216,1638.419C1101.507,1643.801 1099.288,1644.452 1084.882,1648.382C1083.356,1648.799 1081.806,1649.122 1080.241,1649.351C1023.963,1657.588 1016.441,1660.925 956.368,1643.302C953.41,1642.437 950.538,1641.3 947.79,1639.906C886.21,1608.732 885.858,1603.228 849.786,1539.283C845.642,1531.936 838.072,1527.174 829.655,1526.62L827.458,1526.475C814.464,1525.62 802.989,1534.882 801.084,1547.765C798.081,1568.073 797.715,1568.644 793.166,1586.218C792.686,1588.075 792.068,1589.893 791.319,1591.659C784.873,1607.811 783.851,1609.924 776.363,1625.936C775.578,1627.616 774.691,1629.245 773.705,1630.815C760.106,1652.505 758.385,1653.799 740.998,1673.487C739.965,1674.656 738.878,1675.776 737.741,1676.843L733.911,1680.438C733.515,1680.809 733.088,1681.144 732.633,1681.439L695.313,1705.628C692.188,1707.653 688.846,1709.323 685.35,1710.607C672.458,1715.34 669.704,1716.527 653.757,1721.593C652.201,1722.087 650.619,1722.493 649.017,1722.808C631.247,1726.312 629.206,1726.324 611.172,1728.508C609.36,1728.727 607.537,1728.836 605.712,1728.834L564.697,1728.794C562.677,1728.792 560.66,1728.66 558.658,1728.399L525.793,1724.118C524.045,1723.89 522.314,1723.544 520.613,1723.082C487.302,1714.041 481.122,1715.242 437.2,1689.701C435.631,1688.79 434.112,1687.794 432.651,1686.718C428.504,1683.664 419.477,1677.013 416.059,1674.495C415.162,1673.834 414.31,1673.114 413.509,1672.34L393.772,1653.274C392.519,1652.063 391.364,1650.756 390.317,1649.365L378.681,1633.895C377.869,1632.815 377.145,1631.672 376.516,1630.475C360.829,1600.641 361.125,1595.815 351.299,1565.51C349.688,1560.535 348.868,1555.338 348.868,1550.108C348.865,1542.032 348.865,1529.724 348.865,1522.261C348.865,1518.09 349.471,1513.942 350.662,1509.946C358.135,1484.954 357.236,1479.65 371.656,1456.105C373.168,1453.621 374.894,1451.274 376.815,1449.091C380.364,1445.03 386.56,1437.986 389.383,1434.776C390.381,1433.642 391.471,1432.593 392.644,1431.64C403.251,1423.009 405.012,1422.068 416.818,1414.407C417.958,1413.668 419.139,1412.996 420.357,1412.393L429.035,1408.1C429.639,1407.802 430.265,1407.55 430.907,1407.347C446.765,1402.344 448.539,1402.596 464.476,1400.404C466.01,1400.194 467.555,1400.074 469.103,1400.046C484.313,1399.778 486.987,1398.824 503.683,1402.415C508.372,1403.409 512.863,1405.178 516.971,1407.649C517.82,1408.155 518.734,1408.68 519.834,1409.308C521.216,1410.124 522.477,1411.13 523.579,1412.297C526.031,1414.834 527.443,1416.479 528.987,1418.742C531.603,1422.45 532.809,1426.971 532.389,1431.489C532.423,1431.631 532.409,1431.772 532.394,1431.916C532.292,1432.944 532.046,1433.953 531.665,1434.914C525.089,1451.535 521.947,1451.365 512.623,1470.244C511.874,1471.759 511.281,1473.347 510.853,1474.982C507.053,1489.495 505.23,1498.012 505.646,1506.87C506.073,1515.967 508.712,1525.715 516.282,1542.413C516.999,1543.996 517.88,1545.499 518.909,1546.899C529.917,1561.874 529.955,1561.005 544.166,1571.936C546.449,1573.693 549.018,1575.041 551.76,1575.922C571.108,1582.139 583.548,1583.119 593.116,1581.27C607.757,1578.44 618.292,1568.842 635.624,1547.549C636.889,1545.995 637.963,1544.294 638.822,1542.483C651.62,1515.507 650.024,1515.273 655.315,1485.803C655.521,1484.66 655.646,1483.503 655.691,1482.342C656.588,1458.939 656.067,1459.28 655.828,1436.11C655.819,1435.243 655.765,1434.378 655.667,1433.518C653.228,1412.267 653.918,1401.605 640.787,1331.268C640.761,1331.128 640.733,1330.989 640.705,1330.849L632.148,1288.99L632.107,1288.794L621.403,1238.484C621.337,1238.173 621.265,1237.864 621.187,1237.556C614.591,1211.476 615.796,1211.697 606.515,1186.993C606.044,1185.739 605.472,1184.524 604.807,1183.361C596.962,1169.663 596.418,1169.198 588.866,1157.577C588.178,1156.518 587.55,1155.419 586.987,1154.288C583.707,1147.341 582.744,1145.518 580.354,1139.543C579.628,1137.944 579.086,1136.266 578.741,1134.544C576.07,1121.54 575.228,1118.854 574.317,1107.349C574.062,1104.245 574.223,1101.12 574.793,1098.058C576.762,1087.289 577.912,1083.985 582.363,1073.848C583.737,1070.693 585.568,1067.757 587.797,1065.136C610.761,1038.111 632.098,1035.772 656.099,1032.064C658.628,1031.667 661.183,1031.464 663.743,1031.459C679.579,1031.403 681.936,1031.939 699.229,1033.526C700.699,1033.661 702.159,1033.884 703.602,1034.194L703.655,1034.205C720.117,1040.082 722.185,1041.352 735.001,1047.146C738.313,1048.643 741.401,1050.595 744.174,1052.945C752.168,1059.324 754.53,1061.77 763.017,1070.994C764.367,1072.47 765.595,1074.052 766.689,1075.726C768.871,1079.058 772.606,1084.77 774.232,1087.256C774.761,1088.066 775.229,1088.915 775.63,1089.795L784.26,1108.75C784.715,1109.749 785.104,1110.777 785.425,1111.827C792.148,1133.885 792.54,1135.401 796.249,1158.088C796.475,1159.422 796.648,1160.766 796.766,1162.114C797.351,1168.682 799.421,1192.363 799.839,1197.15C799.889,1197.714 799.926,1198.28 799.951,1198.846L802.081,1247.596L802.085,1247.674C804.218,1298.265 804.587,1319.976 805.494,1327.585C806.347,1334.745 808.556,1339.214 810.47,1341.976C811.457,1343.401 812.633,1344.685 813.966,1345.793C814.992,1346.654 816.445,1347.861 817.28,1348.555C817.718,1348.918 818.197,1349.228 818.709,1349.477L822.066,1351.112C822.605,1351.374 823.175,1351.567 823.763,1351.686L828.8,1352.708C829.627,1352.876 830.473,1352.928 831.314,1352.862L836.274,1352.477C836.629,1352.449 836.981,1352.396 837.328,1352.315C841.33,1351.358 848.225,1348.669 853.665,1340.435C855.228,1338.068 853.086,1337.255 869.144,1311.9C870.16,1310.293 871.297,1308.767 872.547,1307.335C896.876,1279.424 902.493,1270.108 950.818,1250.993C952.335,1250.392 953.879,1249.866 955.447,1249.416C970.239,1245.162 971.941,1244.9 986.859,1242.692C988.435,1242.458 990.025,1242.326 991.619,1242.297C1009.218,1241.95 1011.763,1242.003 1028.074,1243.829C1030.601,1244.085 1033.103,1244.555 1035.552,1245.232C1049.985,1249.333 1052.886,1250.162 1066.033,1254.933C1068.805,1255.876 1071.468,1257.112 1073.977,1258.622C1078.89,1261.541 1087.95,1266.991 1090.755,1268.679C1091.336,1269.028 1091.902,1269.4 1092.453,1269.795C1102.97,1277.335 1103.445,1278.286 1112.542,1286.646C1113.303,1287.345 1114.026,1288.084 1114.709,1288.861C1137.647,1314.962 1142.164,1326.373 1143.791,1329.623C1145.001,1332.039 1146.177,1333.722 1147.128,1334.911C1147.331,1335.162 1147.551,1335.399 1147.787,1335.62C1148.547,1336.337 1150.448,1338.122 1151.461,1339.073C1151.9,1339.485 1152.389,1339.839 1152.917,1340.127L1157.078,1342.401C1157.622,1342.698 1158.202,1342.923 1158.804,1343.069L1163.45,1344.199C1164.059,1344.347 1164.684,1344.414 1165.309,1344.398L1169.811,1344.284C1170.632,1344.263 1171.442,1344.1 1172.207,1343.802L1179.96,1340.782C1180.862,1340.43 1181.715,1339.963 1182.496,1339.39C1183.848,1338.332 1185.468,1336.888 1187.193,1334.817C1192.963,1327.891 1195.622,1323.262 1193.965,1310.291C1193.148,1303.899 1188.845,1288.328 1184.766,1236.991C1184.747,1236.754 1184.73,1236.518 1184.714,1236.281C1184.554,1233.88 1182.615,1204.377 1182.257,1198.926C1182.219,1198.351 1182.194,1197.775 1182.182,1197.199L1181.348,1158.273C1181.287,1155.391 1181.502,1152.51 1181.99,1149.67C1184.318,1136.057 1184.31,1132.511 1190.96,1120.135C1192.248,1117.708 1193.776,1115.417 1195.52,1113.296C1197.732,1110.571 1201.012,1106.583 1202.734,1104.489C1203.518,1103.536 1204.403,1102.67 1205.374,1101.907C1218,1092.136 1258.156,1065.489 1300.862,1096.597C1302.668,1097.918 1304.383,1099.36 1305.995,1100.912C1312.496,1107.055 1313.346,1108.65 1318.251,1115.552C1319.155,1116.823 1319.939,1118.176 1320.592,1119.593C1336.309,1153.742 1336.894,1178.849 1319.232,1335.957C1319.183,1336.395 1319.145,1336.835 1319.119,1337.275L1316.152,1387.472C1316.13,1387.839 1316.117,1388.206 1316.111,1388.574L1315.443,1433.278C1315.432,1434.031 1315.454,1434.784 1315.511,1435.534L1319.319,1485.941C1319.441,1487.56 1319.721,1489.163 1320.154,1490.727C1330.389,1527.705 1336.551,1523.971 1363.489,1551.456C1365.284,1553.287 1367.043,1554.826 1368.75,1556.119C1376.235,1561.786 1385.996,1563.491 1394.959,1560.697C1395.618,1560.511 1396.247,1560.314 1396.803,1560.141C1398.181,1559.712 1399.461,1559.017 1400.574,1558.097L1405.563,1553.97C1406.259,1553.395 1406.881,1552.738 1407.418,1552.012C1409.649,1548.943 1411.797,1544.653 1412.466,1538.706C1412.985,1534.091 1410.641,1522.024 1410.011,1507.958C1406.082,1420.26 1407.538,1420.682 1398.516,1333.355C1390.281,1251.453 1382.644,1191.554 1388.429,1148.626C1392.955,1115.031 1407.508,1094.602 1441.816,1083.697C1448.888,1081.45 1460.512,1081.871 1466.967,1082.299C1468.671,1082.414 1470.362,1082.679 1472.02,1083.09C1483.108,1085.7 1485.723,1086.597 1494.72,1090.831C1497.114,1091.937 1499.357,1093.344 1501.396,1095.016C1510.428,1102.39 1512.995,1104.626 1519.896,1113.561C1522.089,1116.378 1523.865,1119.497 1525.167,1122.822C1543.47,1170.272 1534.11,1215.482 1528.485,1242.24C1526.702,1251.321 1526.821,1260.672 1528.833,1269.705C1529.488,1272.702 1530,1275 1530,1275C1530,1275 1536.324,1304.49 1557.814,1292.812C1562.845,1290.069 1567.008,1285.974 1569.836,1280.991C1570.931,1279.072 1571.924,1277.323 1571.947,1277.283C1571.947,1277.282 1571.947,1277.282 1571.947,1277.282C1572.524,1276.186 1573.12,1275.041 1573.736,1273.845C1576.545,1268.385 1577.585,1268.26 1584.12,1261.041C1585.099,1259.961 1586.198,1258.996 1587.397,1258.167C1597.643,1251.052 1600.005,1249.964 1612.151,1246.093C1614.143,1245.454 1616.191,1245.005 1618.268,1244.753C1628.529,1243.489 1630.938,1243.743 1640.973,1243.639C1642.915,1243.619 1644.855,1243.793 1646.762,1244.158C1664.72,1247.61 1675.967,1251.72 1683.69,1258.992C1691.614,1266.453 1695.707,1276.554 1700.902,1289.547C1701.576,1291.229 1702.132,1292.957 1702.567,1294.716C1705.993,1308.604 1707.263,1311.315 1715.361,1348.465C1715.444,1348.842 1715.535,1349.218 1715.634,1349.591C1726.834,1391.524 1728.532,1405.486 1730.611,1410.776C1735.229,1422.529 1740.421,1425.978 1750.408,1428.944C1755.445,1430.441 1760.827,1430.312 1765.787,1428.575L1768.185,1427.736C1776.125,1424.956 1782.135,1418.37 1784.177,1410.209C1792.525,1376.851 1792.762,1376.244 1800.012,1342.985C1800.329,1341.528 1800.712,1340.087 1801.158,1338.664L1813.868,1298.163C1814.691,1295.541 1815.733,1292.992 1816.983,1290.544L1819.033,1286.527C1819.186,1286.226 1819.357,1285.934 1819.543,1285.652C1827.472,1273.511 1829.163,1271.469 1836.866,1263.734C1839.1,1261.479 1841.63,1259.537 1844.386,1257.962C1846.907,1256.519 1850.025,1254.737 1851.989,1253.614C1853.453,1252.777 1855.033,1252.161 1856.678,1251.787C1869.955,1248.483 1872.812,1248.272 1886.608,1247.876C1889.08,1247.802 1891.553,1247.975 1893.991,1248.394C1907.18,1250.609 1908.645,1252.071 1919.768,1258.212C1920.404,1258.563 1921.029,1258.935 1921.641,1259.327C1929.172,1264.144 1933.05,1267.14 1935.252,1268.286C1938.877,1270.174 1942.049,1270.994 1944.739,1271.337C1945.788,1271.472 1946.849,1271.479 1947.899,1271.358C1949.495,1271.185 1952.249,1270.869 1954.001,1270.667C1955.073,1270.544 1956.114,1270.231 1957.076,1269.743L1963.051,1266.715C1963.812,1266.329 1964.527,1265.857 1965.18,1265.307C1967.792,1263.081 1970.626,1259.834 1972.83,1254.62C1983.231,1230.018 1982.608,1228.355 1991.672,1206.788C1992.49,1204.836 1993.432,1202.938 1994.491,1201.106C1997.653,1195.63 2004.773,1183.311 2007.115,1179.257C2007.623,1178.378 2008.175,1177.523 2008.767,1176.698L2019.828,1161.269C2020.243,1160.69 2020.684,1160.131 2021.151,1159.593C2052.097,1123.918 2052.698,1121.445 2091.55,1096.924C2093.333,1095.798 2095.185,1094.786 2097.095,1093.894C2134.047,1076.629 2135.811,1075.306 2177.162,1064.674C2178.462,1064.339 2179.776,1064.057 2181.099,1063.828C2199.941,1060.564 2201.583,1060.578 2219.814,1058.691C2221.54,1058.513 2223.275,1058.434 2225.009,1058.455L2266.666,1058.971C2268.585,1058.995 2270.502,1059.131 2272.405,1059.378C2289.16,1061.554 2291.053,1062.101 2308.144,1065.368C2309.53,1065.634 2310.902,1065.967 2312.256,1066.367L2335.84,1073.334C2337.134,1073.717 2338.4,1074.189 2339.629,1074.747C2365.832,1086.647 2367.962,1087.537 2391.888,1102.705C2393.904,1103.982 2395.826,1105.401 2397.639,1106.952L2407.023,1114.978C2407.454,1115.347 2407.867,1115.737 2408.26,1116.148C2421.032,1129.492 2422.099,1130.032 2432.929,1144.082C2433.721,1145.108 2434.464,1146.17 2435.155,1147.266L2440.775,1156.173C2441.138,1156.749 2441.463,1157.35 2441.745,1157.97C2450.212,1176.563 2451.721,1178.266 2457.169,1196.489C2457.92,1198.989 2458.462,1201.548 2458.79,1204.139C2461.647,1226.531 2460.742,1228.007 2460.528,1253.717C2460.475,1260.031 2462.196,1264.764 2464.304,1268.253C2465.427,1270.122 2466.832,1271.806 2468.471,1273.244C2469.409,1274.087 2470.639,1275.167 2471.398,1275.833C2471.862,1276.241 2472.378,1276.586 2472.932,1276.86L2477.065,1278.906C2477.79,1279.264 2478.571,1279.497 2479.375,1279.592L2487.63,1280.575C2488.62,1280.693 2489.621,1280.678 2490.607,1280.528C2493.187,1280.127 2496.466,1279.243 2500.325,1277.132C2503.249,1275.533 2508.653,1271.526 2517.862,1263.98C2519.472,1262.667 2521.238,1261.56 2523.121,1260.683C2536.824,1254.309 2539.833,1253.12 2554.683,1249.923C2557.515,1249.307 2560.402,1248.978 2563.3,1248.942C2577.331,1248.751 2580.258,1248.6 2594.204,1250.917C2596.76,1251.337 2599.269,1252.01 2601.693,1252.926C2608.617,1255.513 2610.668,1256.844 2617.058,1260.759C2618.605,1261.704 2620.044,1262.813 2621.351,1264.068L2626.762,1269.261C2627.564,1270.031 2628.265,1270.9 2628.847,1271.847C2633.373,1279.126 2634.477,1281.247 2637.086,1289.058C2637.76,1290.947 2638.205,1292.91 2638.412,1294.904C2640.068,1310.461 2639.397,1312.44 2639.43,1329.254C2639.432,1330.327 2639.389,1331.398 2639.303,1332.467L2635.455,1380.11C2635.44,1380.297 2635.427,1380.484 2635.416,1380.672C2634.076,1403.722 2633.804,1403.296 2633.445,1426.432C2633.438,1426.908 2633.444,1427.384 2633.464,1427.86C2634.711,1457.776 2635.025,1457.281 2639.589,1486.648C2639.779,1487.868 2640.059,1489.073 2640.427,1490.252C2641.244,1492.871 2647.617,1512.259 2655.648,1523.568C2664.281,1535.724 2675.942,1540.757 2685.71,1540.395C2692.06,1540.159 2700.302,1537.434 2707.467,1529.591C2715.26,1521.06 2724.32,1500.181 2725.336,1497.659C2726.017,1495.971 2726.51,1494.214 2726.809,1492.418C2729.566,1475.851 2732.5,1475.781 2726.78,1382.257C2726.733,1381.49 2726.704,1380.721 2726.693,1379.953C2726.323,1354.87 2725.372,1354.493 2726.918,1328.729L2726.992,1328.194L2726.994,1328.185C2730.853,1312.221 2732.399,1303.064 2736.868,1295.672C2740.63,1289.449 2746.635,1284.93 2756.996,1277.509C2758.602,1276.357 2760.313,1275.36 2762.107,1274.533C2772.541,1269.703 2774.999,1269.076 2786.004,1266.351C2788.098,1265.83 2790.239,1265.515 2792.394,1265.411L2793.155,1265.374C2793.368,1265.364 2793.582,1265.367 2793.795,1265.383C2823.645,1267.651 2829.473,1270.653 2832.257,1271.426C2837.707,1272.939 2841.656,1272.972 2846.753,1271.78C2848.618,1271.344 2851.881,1270.378 2855.825,1267.778C2859.764,1265.18 2872.523,1253.498 2885.612,1245.692C2900.941,1236.551 2907.308,1229.349 2910.654,1221.665C2913.623,1214.845 2914.611,1206.237 2912.525,1191.345C2912.327,1189.936 2912.221,1188.516 2912.206,1187.093C2912.002,1164.648 2916.746,1149.136 2926.062,1139.331C2936.65,1128.186 2952.223,1125.559 2967.339,1126.138C2978.973,1126.584 2990.559,1129.097 3000.553,1132.67C3009.737,1135.935 3017.682,1141.968 3023.292,1149.939C3023.998,1150.949 3024.753,1152.084 3025.613,1153.411C3026.754,1155.161 3027.671,1157.047 3028.345,1159.024C3032.805,1172.02 3032.492,1174.493 3033.977,1188.835C3034.111,1190.133 3034.177,1191.436 3034.173,1192.74C3034.163,1204.248 3033.937,1209.063 3034.047,1211.566C3034.411,1219.917 3035.899,1222.578 3039.073,1227.448C3044.243,1235.382 3047.699,1238.513 3058.871,1240.087C3061.159,1240.409 3065.859,1240.325 3077.461,1240.84L3077.647,1240.848C3093.344,1241.427 3096.035,1241.511 3106.446,1244.782C3111.45,1246.323 3116.046,1248.964 3119.897,1252.513C3120.684,1253.247 3121.52,1254.011 3122.505,1254.914C3123.799,1256.123 3124.896,1257.525 3125.759,1259.071C3129.834,1266.319 3134.231,1274.7 3134.523,1285.724C3134.718,1293.07 3132.92,1301.468 3128.43,1311.469C3126.459,1315.899 3123.59,1319.872 3120.005,1323.137C3118.806,1324.173 3117.582,1325.161 3115.904,1326.431C3114.527,1327.506 3112.993,1328.363 3111.356,1328.973C3093.115,1335.798 3091.382,1335.49 3068.804,1339.482L3068.763,1339.488C3056.01,1341.561 3049.133,1345.35 3044.578,1349.384C3038.009,1355.198 3033.94,1363.621 3031.905,1382.15C3031.862,1382.543 3031.828,1382.937 3031.803,1383.331L3029.377,1422.401C3029.344,1422.93 3029.328,1423.46 3029.329,1423.99C3029.379,1455.733 3028.784,1455.429 3033.585,1486.61C3033.974,1489.136 3034.748,1491.587 3035.88,1493.878C3041.528,1505.311 3043.458,1510.99 3048.599,1515.989C3052.736,1520.011 3058.799,1524.159 3070.985,1528.116C3073.384,1528.895 3075.888,1529.307 3078.411,1529.337C3087.839,1529.448 3114.132,1528.102 3125.427,1527.494C3127.136,1527.401 3128.85,1527.535 3130.525,1527.891C3132.471,1528.305 3134.302,1528.95 3136.093,1530.329C3139.701,1533.107 3142.87,1538.006 3147.076,1546.379C3149.001,1550.176 3150.004,1554.374 3150.004,1558.631C3150.009,1563.349 3150.009,1569.794 3150.009,1574.459C3150.009,1578.352 3149.227,1582.206 3147.711,1585.792C3142.115,1599.087 3141.075,1604.006 3129.745,1614.565C3127.377,1616.81 3124.783,1618.802 3122.003,1620.51C3119.18,1622.323 3115.163,1624.791 3113.326,1625.92C3112.636,1626.344 3111.917,1626.718 3111.175,1627.04C3096.064,1633.665 3094.291,1634.296 3079.335,1638.327C3077.519,1638.82 3075.669,1639.18 3073.801,1639.407C3053.005,1641.929 3050.95,1642.313 3029.247,1642.186C3027.368,1642.176 3025.49,1642.059 3023.623,1641.838C3010.747,1640.453 3008.56,1640.105 2995.738,1637.904C2993.775,1637.555 2991.845,1637.04 2989.969,1636.364C2973.851,1630.563 2971.668,1630.022 2955.517,1620.489C2954.735,1620.028 2953.985,1619.513 2953.273,1618.949L2953.248,1618.929C2909.181,1578.026 2901.906,1538.046 2903.385,1490.569C2904.527,1453.94 2910.397,1413.352 2911.578,1365.78C2911.742,1359.208 2909.65,1352.611 2904.946,1346.91C2899.762,1340.627 2889.923,1335.509 2881.388,1334.805C2871.885,1334.02 2863.905,1337.564 2858.684,1342.666C2853.841,1347.398 2850.224,1353.902 2850.432,1363.15C2853.369,1493.847 2833.222,1495.329 2863.078,1622.678C2863.217,1623.271 2863.345,1623.822 2863.462,1624.336C2864.726,1629.952 2862.175,1635.735 2857.174,1638.588C2851.787,1641.732 2847.735,1642.485 2838.595,1645.123C2837.02,1645.578 2835.412,1645.908 2833.786,1646.11C2818.6,1647.992 2815.929,1649.001 2801.618,1648.093C2799.594,1647.97 2797.583,1647.689 2795.602,1647.253C2785.319,1644.999 2781.043,1646.607 2769.459,1631.683L2769.389,1631.593C2759.453,1618.912 2751.46,1616.446 2744.115,1616.611C2740.203,1616.699 2734.689,1617.461 2727.52,1622.261C2710.106,1633.92 2709.347,1634.562 2692.445,1642.168C2690.755,1642.931 2689.019,1643.588 2687.248,1644.136C2658.416,1653.074 2651.438,1655.678 2613.154,1652.442C2610.062,1652.184 2607.001,1651.639 2604.01,1650.814C2590.409,1647.081 2587.062,1646.051 2574.947,1640.791C2572.044,1639.639 2569.288,1638.148 2566.734,1636.349C2558.837,1630.869 2556.732,1629.687 2548.602,1622.611C2547.443,1621.605 2546.365,1620.509 2545.379,1619.332C2542.531,1615.938 2536.227,1608.418 2533.749,1605.463C2533.07,1604.652 2532.447,1603.796 2531.885,1602.9C2521.736,1586.686 2516.467,1579.19 2513.582,1576.411C2504.454,1567.618 2496.142,1567.723 2490.026,1568.756C2484.205,1569.74 2477.601,1572.614 2472.152,1580.381C2435.641,1632.423 2432.26,1632.231 2383.139,1661.279C2381.03,1662.527 2378.832,1663.617 2376.563,1664.542L2357.039,1672.502C2355.941,1672.95 2354.815,1673.325 2353.669,1673.625L2314.819,1683.792C2312.664,1684.355 2310.472,1684.766 2308.26,1685.019L2272.514,1689.118C2270.86,1689.308 2269.196,1689.401 2267.532,1689.398L2222.847,1689.324C2220.882,1689.32 2218.919,1689.201 2216.968,1688.967L2181.709,1684.732C2179.576,1684.476 2177.465,1684.061 2175.394,1683.49L2140.377,1673.836C2138.547,1673.332 2136.752,1672.707 2135.005,1671.966L2115.591,1663.734C2115.004,1663.485 2114.427,1663.214 2113.861,1662.922L2096.454,1653.921C2095.519,1653.438 2094.619,1652.891 2093.76,1652.285C2058.169,1627.192 2052.765,1628.223 2009.361,1573.023C2008.287,1571.658 2007.284,1570.237 2006.358,1568.767C1996.253,1552.751 1995.735,1550.936 1986.166,1534.181C1985.36,1532.77 1984.631,1531.316 1983.983,1529.826C1973.869,1506.612 1973.423,1504.671 1964.934,1480.709C1964.334,1479.018 1963.827,1477.295 1963.413,1475.548C1958.148,1453.32 1953.846,1444.605 1951.735,1441.615C1941.612,1430.436 1941.536,1430.904 1927.439,1430.441C1926.443,1430.434 1925.453,1430.59 1924.508,1430.904L1919.583,1432.538C1918.72,1432.824 1917.905,1433.238 1917.164,1433.766L1913.312,1436.513C1912.648,1436.986 1912.051,1437.546 1911.537,1438.179L1908.29,1442.168C1908.065,1442.445 1907.86,1442.739 1907.679,1443.046C1903.885,1449.475 1905.742,1452.918 1871.396,1535.323C1871.088,1536.061 1870.763,1536.791 1870.421,1537.513L1861.622,1556.066L1861.588,1556.137L1848.883,1582.695C1848.794,1582.879 1848.704,1583.063 1848.612,1583.246L1827.584,1625.057C1827.101,1626.018 1826.587,1626.962 1826.042,1627.888C1802.791,1667.41 1802.81,1669.782 1772.469,1702.341C1771.214,1703.689 1769.884,1704.967 1768.487,1706.169L1761.388,1712.279C1761.03,1712.587 1760.655,1712.876 1760.265,1713.144C1746.879,1722.252 1745.033,1723.671 1733.404,1730.643C1731.457,1731.914 1729.384,1732.979 1727.218,1733.821C1716.68,1737.976 1690.439,1747.47 1662.253,1751.573C1643.561,1754.294 1623.808,1755.172 1608.614,1748.1C1604.21,1746.051 1600.38,1743.787 1597.051,1741.376C1577.841,1727.541 1570.977,1702.125 1580.61,1680.501C1581.211,1679.145 1581.813,1677.639 1582.426,1675.716C1582.427,1675.712 1582.426,1675.707 1582.422,1675.705C1582.419,1675.702 1582.414,1675.702 1582.41,1675.704C1582.371,1675.733 1582.289,1675.792 1582.209,1675.849C1582.176,1675.873 1582.131,1675.874 1582.097,1675.851C1582.063,1675.828 1582.046,1675.787 1582.054,1675.747C1585.582,1658.783 1573.909,1650.988 1564.8,1647.543ZM1526.437,1313.648C1526.193,1313.924 1525.999,1314.241 1525.866,1314.585C1525.596,1315.292 1525.339,1316.041 1525.101,1316.833C1521.465,1328.968 1517.659,1426.125 1517.437,1432.972C1517.408,1433.885 1517.428,1434.798 1517.499,1435.709C1520.868,1479.31 1520.107,1495.831 1540.418,1520.015C1542.987,1523.073 1546.251,1525.471 1549.937,1527.009C1572.97,1536.617 1584.63,1544.105 1585.972,1544.986L1586.053,1545.092C1590.86,1552.613 1591.254,1553.601 1593.746,1559.63C1594.225,1560.786 1594.59,1561.987 1594.834,1563.214C1598.884,1583.45 1597.151,1586.82 1595.646,1596.394C1595.367,1598.188 1594.963,1599.959 1594.438,1601.697C1592.061,1609.614 1592.07,1611.357 1585.27,1620.77C1584.763,1621.472 1584.291,1622.193 1583.856,1622.931C1583.844,1622.952 1583.845,1622.978 1583.859,1622.998C1583.872,1623.018 1583.896,1623.029 1583.92,1623.026C1583.93,1623.023 1583.94,1623.02 1583.95,1623.017C1583.953,1623.01 1583.96,1623.006 1583.968,1623.005C1583.975,1623.005 1583.982,1623.008 1583.987,1623.014C1579.808,1630.847 1581.04,1637.367 1584.518,1642.572C1591.669,1653.438 1604.839,1658.687 1617.503,1655.72C1627.142,1653.547 1640.719,1649.06 1659.526,1640.638C1660.712,1640.106 1661.855,1639.483 1662.945,1638.774C1679.425,1628.048 1678.648,1628.139 1691.809,1614.209C1692.607,1613.364 1693.345,1612.465 1694.018,1611.518C1696.377,1608.318 1705.981,1594.923 1708.135,1586.083C1711.648,1571.666 1707.355,1559.56 1695.241,1551.699C1677.902,1540.448 1676.769,1539.316 1664.004,1528.546C1662.028,1526.882 1660.207,1525.042 1658.561,1523.051C1642.745,1503.943 1641.864,1501.947 1627.002,1478.289C1626.622,1477.684 1626.255,1477.071 1625.901,1476.45L1618.076,1462.721C1617.91,1462.429 1617.751,1462.133 1617.6,1461.833C1599.346,1425.471 1599.647,1425.138 1594.182,1413.236L1594.178,1413.226L1583.155,1387.956C1582.846,1387.248 1582.566,1386.528 1582.314,1385.798C1572.169,1356.318 1570.5,1356.302 1567.575,1323.827C1566.938,1316.75 1565.917,1311.967 1565.067,1309.077C1564.96,1308.772 1564.846,1308.47 1564.724,1308.172C1564.538,1307.714 1564.245,1307.308 1563.869,1306.986C1558.498,1302.488 1543.65,1293.464 1527,1313C1526.81,1313.222 1526.623,1313.438 1526.437,1313.648ZM998.927,1411.597C1009.247,1409.122 1042.546,1402.502 1054.721,1395.833C1070.59,1387.141 1072.898,1373.68 1071.212,1364.746C1071.013,1363.69 1068.104,1352.994 1060.604,1342.023C1052.985,1330.879 1040.86,1319.849 1024.77,1316.312C1011.56,1313.407 994.786,1314.796 974.924,1328.795C973.688,1329.666 972.533,1330.647 971.475,1331.727C968.893,1334.36 953.497,1350.466 947.39,1371.026C941.56,1390.652 947.512,1401.241 952.152,1406.693C956.808,1412.163 962.994,1415.68 970.763,1416.762C974.838,1417.329 979.742,1417.123 984.988,1415.918C989.539,1414.873 994.842,1412.615 998.884,1411.608L998.927,1411.597ZM1026.785,1461.575C1026.24,1461.726 1025.69,1461.856 1025.135,1461.963C1019.981,1462.975 1002.791,1466.602 991.566,1471.928C980.743,1477.065 972.559,1484.569 968.516,1492.464C961.988,1505.213 959.495,1524.778 987.36,1544.964C1001.724,1555.37 1033.394,1557.089 1037.522,1557.099C1040.357,1557.106 1043.173,1556.63 1045.848,1555.692C1076.085,1545.097 1076.566,1542.967 1099.611,1525.346C1101.468,1523.926 1103.423,1522.638 1105.461,1521.491C1111.825,1517.91 1114.102,1516.367 1119.8,1513.919C1122.442,1512.768 1125.262,1512.081 1128.137,1511.888C1128.365,1511.865 1128.583,1511.85 1128.784,1511.836C1129.591,1511.782 1130.401,1511.865 1131.18,1512.084C1143.858,1515.625 1145.282,1516.965 1156.36,1528.767C1157.943,1530.454 1159.525,1531.846 1161.087,1532.991C1167.247,1537.476 1175.11,1538.918 1182.461,1536.912C1184.06,1536.488 1185.811,1536.01 1187.061,1535.669C1188.187,1535.362 1189.257,1534.879 1190.232,1534.238L1192.871,1532.505C1193.342,1532.196 1193.774,1531.831 1194.159,1531.419L1197.954,1527.36C1198.191,1527.106 1198.409,1526.836 1198.606,1526.55C1200.842,1523.266 1203.286,1517.86 1203.997,1510.635C1204.803,1502.446 1203.271,1487.898 1202.803,1483.062C1202.759,1482.583 1202.726,1482.102 1202.706,1481.621C1201.25,1447.572 1199.187,1433.62 1197.541,1428.73C1195.156,1421.645 1191.594,1417.683 1188.389,1415.252C1186.714,1413.975 1184.856,1412.957 1182.879,1412.23C1181.656,1411.765 1180.019,1411.163 1178.913,1410.757C1178.102,1410.459 1177.253,1410.278 1176.39,1410.22L1171.778,1409.907C1170.861,1409.845 1169.94,1409.922 1169.046,1410.136L1163.043,1411.572C1162.493,1411.703 1161.956,1411.886 1161.44,1412.117C1159.016,1413.246 1156.376,1414.912 1153.84,1417.338C1148.433,1422.509 1133.112,1429.329 1125.986,1432.392C1124.706,1432.942 1123.395,1433.415 1122.059,1433.809C1116.552,1435.429 1105.741,1438.51 1044.855,1456.542C1044.59,1456.621 1044.324,1456.697 1044.058,1456.771L1026.785,1461.575ZM2154.518,1441.859C2155.048,1443.268 2155.705,1444.626 2156.48,1445.916C2174.849,1476.514 2174.465,1476.719 2203.375,1497.716C2204.219,1498.329 2205.101,1498.889 2206.015,1499.392L2211.557,1502.442C2212.448,1502.932 2213.367,1503.367 2214.31,1503.745C2286.588,1532.708 2328.053,1507.309 2382.005,1468.598C2382.944,1467.924 2383.906,1467.283 2384.89,1466.676C2394.993,1460.439 2396.349,1459.405 2406.294,1454.945C2407.723,1454.301 2409.202,1453.775 2410.716,1453.37L2414.561,1452.34C2415.105,1452.194 2415.661,1452.099 2416.223,1452.056C2433.958,1450.827 2434.73,1450.697 2454.716,1453.85L2454.722,1453.851C2467.533,1455.957 2475.957,1453.356 2481.545,1449.883C2489.152,1445.155 2495.736,1437.34 2496.369,1422.005C2496.857,1410.18 2491.375,1384.91 2488.881,1336.728C2488.746,1334.112 2488.818,1331.488 2489.094,1328.883C2490.155,1318.881 2490.815,1308.841 2490.107,1303.585C2489.363,1298.057 2487.498,1293.85 2485.474,1290.763C2484.199,1288.813 2482.577,1287.112 2480.69,1285.745C2479.414,1284.817 2477.748,1283.61 2476.489,1282.698C2475.273,1281.818 2473.89,1281.193 2472.426,1280.862L2465.063,1279.199C2464.101,1278.981 2463.115,1278.893 2462.13,1278.935C2457.482,1279.176 2451.491,1280.592 2445.263,1286.189C2433.986,1296.323 2432.765,1297.858 2422.487,1303.015C2420.316,1304.116 2418.029,1304.974 2415.67,1305.573C2412.517,1306.381 2407.949,1307.542 2405.724,1308.107C2404.577,1308.399 2403.401,1308.554 2402.218,1308.571C2389.152,1309.049 2387.191,1308.658 2373.889,1306.576C2372.853,1306.414 2371.83,1306.177 2370.828,1305.868L2370.75,1305.844C2370.735,1305.839 2370.72,1305.833 2370.707,1305.825C2360.918,1300.071 2360.363,1295.563 2357.305,1288.659C2354.416,1282.138 2350.582,1274.472 2343.614,1264.848C2319.166,1231.084 2316.372,1234.029 2276.8,1220.704C2274.936,1220.076 2273.005,1219.671 2271.046,1219.496C2233.012,1216.1 2233.494,1220.398 2211.283,1229.015C2209.543,1229.69 2207.884,1230.558 2206.337,1231.602C2186.071,1245.283 2186.734,1245.599 2170.521,1264.207C2169.715,1265.131 2168.979,1266.113 2168.318,1267.145C2121.115,1340.832 2138.373,1398.988 2154.518,1441.859Z" style="fill:#0f1a0d;"/>
        </g>
    </g>
</svg>
